<?xml version="1.0" encoding="UTF-8"?>
<!DOCTYPE svg PUBLIC "-//W3C//DTD SVG 1.1//EN" "http://www.w3.org/Graphics/SVG/1.1/DTD/svg11.dtd">
<!-- Creator: CorelDRAW -->
<svg xmlns="http://www.w3.org/2000/svg" xml:space="preserve" width="6.82666in" height="6.82666in" style="shape-rendering:geometricPrecision; text-rendering:geometricPrecision; image-rendering:optimizeQuality; fill-rule:evenodd; clip-rule:evenodd"
viewBox="0 0 6.82666 6.82666"
 xmlns:xlink="http://www.w3.org/1999/xlink">
 <defs>
  <style type="text/css">
   <![CDATA[
    .fil0 {fill:#3F51B5}
    .fil2 {fill:#FFFFFE}
    .fil1 {fill:#FFFFFE;fill-rule:nonzero}
   ]]>
  </style>
 </defs>
 <g id="Layer_x0020_1">
  <metadata id="CorelCorpID_0Corel-Layer"/>
  <rect class="fil0" width="6.82666" height="6.82666" rx="0.853335" ry="0.853335"/>
  <g id="_215560424">
   <path id="_215560736" class="fil1" d="M4.16627 1.98609l-1.50588 0 -0.100394 0 0 -0.100394 0 -0.470177c0,-0.0751614 0.0306772,-0.143421 0.0800945,-0.192843 0.0494213,-0.0494173 0.117677,-0.0800984 0.192843,-0.0800984l1.16079 0c0.0751614,0 0.143425,0.0306772 0.192846,0.0800945 0.0494173,0.0494213 0.0800945,0.117685 0.0800945,0.192846l0 0.470177 0 0.100394 -0.100394 0zm-1.10431 -0.52215c-0.0554449,0 -0.100394,0.0449528 -0.100394,0.100398 0,0.0554409 0.0449488,0.100394 0.100394,0.100394l0.702748 0c0.0554449,0 0.100394,-0.0449528 0.100394,-0.100394 0,-0.0554449 -0.0449488,-0.100398 -0.100394,-0.100398l-0.702748 0z"/>
   <path id="_215560544" class="fil2" d="M1.11058 2.05981l4.60549 0c0.0708465,0 0.135189,0.0289134 0.181764,0.0754921 0.0465787,0.0465748 0.0754921,0.110921 0.0754921,0.181768l0 2.81808c0,0.0708465 -0.0289134,0.135193 -0.0754921,0.181768 -0.0465748,0.0465787 -0.110917,0.0754921 -0.181764,0.0754921l-4.60549 0c-0.0708465,0 -0.135189,-0.0289134 -0.181764,-0.0754921 -0.0465787,-0.0465748 -0.0754921,-0.110921 -0.0754921,-0.181768l0 -2.81808c0,-0.0708465 0.0289134,-0.135193 0.0754921,-0.181768 0.0465748,-0.0465787 0.110917,-0.0754921 0.181764,-0.0754921zm0.29935 0.511791l1.50588 0 0.100394 0 0 0.100398 0 2.10823 0 0.100398 -0.100394 0 -1.50588 0 -0.100394 0 0 -0.100398 0 -2.10823 0 -0.100398 0.100394 0zm1.91178 0.652551l1.66194 0 0 0.200791 -1.66194 0 0 -0.200791zm0 0.727843l2.10513 0 0 0.200787 -2.10513 0 0 -0.200787zm0 0.727831l2.10513 0 0 0.200791 -2.10513 0 0 -0.200791z"/>
   <path id="_215560400" class="fil1" d="M1.78652 3.69229c-0.076185,0.0430118 -0.141799,0.106839 -0.191098,0.184862 -0.0610945,0.096685 -0.0972638,0.215268 -0.0972638,0.342685l0 0.00959449c0,0.041811 0.0152677,0.0804252 0.0398622,0.108949 0.0267402,0.0310157 0.0643465,0.0502756 0.106358,0.0502756l1.03699 0c0.0420197,0 0.079626,-0.0192598 0.106366,-0.0502756 0.0245945,-0.0285236 0.0398622,-0.0671378 0.0398622,-0.108949l0 -0.00959449c0,-0.126531 -0.0355787,-0.244248 -0.0957441,-0.340413 -0.0489764,-0.0782677 -0.114291,-0.142409 -0.190224,-0.185819 -0.0202283,0.041252 -0.0471417,0.0792717 -0.0817126,0.11263 -0.206575,0.199319 -0.54439,0.135709 -0.673398,-0.113945zm0.376358 0.167512l-0.000141732 0 -0.00023622 -7.87402e-006c-0.0795787,-9.84252e-005 -0.175118,-0.0326063 -0.248083,-0.103012 -0.0582717,-0.0562283 -0.102339,-0.136098 -0.112606,-0.242067 -0.000755906,-0.00785433 -0.00135433,-0.0214528 -0.00179528,-0.0361614 -0.000598425,-0.0196378 -0.00096063,-0.0434685 -0.00104331,-0.054937 -0.00105512,-0.136717 0.0430787,-0.225909 0.112803,-0.282559 0.0678661,-0.0551378 0.156752,-0.0754055 0.249831,-0.0772362l-3.93701e-006 -0.000244094c0.00287008,-5.11811e-005 0.00569685,7.87402e-005 0.00847638,0.000385827 0.0909213,0.00257087 0.177484,0.0231339 0.243902,0.0770945 0.0697205,0.0566496 0.113858,0.145843 0.112803,0.282559 -8.26772e-005,0.0114685 -0.000444882,0.0352992 -0.00104331,0.054937 -0.000440945,0.0147087 -0.00103937,0.0283071 -0.00179528,0.0361614 -0.0105551,0.108992 -0.0511732,0.188929 -0.109091,0.244815 -0.0676457,0.0652677 -0.157091,0.0955945 -0.248874,0.100012l7.87402e-006 0.000181102c-0.00104331,4.72441e-005 -0.0020748,7.08661e-005 -0.00311024,7.08661e-005l0 7.87402e-006z"/>
  </g>
 </g>
</svg>
